HIERARCHY
ROOT Hips
{
	OFFSET -8.665500 -1.496397 44.816700
	CHANNELS 6 Xposition Yposition Zposition Zrotation Xrotation Yrotation
	JOINT Chest
	{
		OFFSET -0.698600 0.806100 5.350899
		CHANNELS 6 Xposition Yposition Zposition Zrotation Xrotation Yrotation
		JOINT Chest2
		{
			OFFSET 0.000000 0.000000 4.409100
			CHANNELS 6 Xposition Yposition Zposition Zrotation Xrotation Yrotation
			JOINT Neck
			{
				OFFSET 0.000000 0.000001 10.248299
				CHANNELS 6 Xposition Yposition Zposition Zrotation Xrotation Yrotation
				JOINT Head
				{
					OFFSET 0.000000 0.000000 2.173897
					CHANNELS 6 Xposition Yposition Zposition Zrotation Xrotation Yrotation
					End Site
					{
						OFFSET 0.000000 0.000001 9.966400
					}
				}
			}
			JOINT LeftCollar
			{
				OFFSET 2.100600 -0.520900 6.016098
				CHANNELS 6 Xposition Yposition Zposition Zrotation Xrotation Yrotation
				JOINT LeftShoulder
				{
					OFFSET 5.536700 0.000000 0.000000
					CHANNELS 6 Xposition Yposition Zposition Zrotation Xrotation Yrotation
					JOINT LeftElbow
					{
						OFFSET 0.000000 -0.000001 -12.362099
						CHANNELS 6 Xposition Yposition Zposition Zrotation Xrotation Yrotation
						JOINT LeftWrist
						{
							OFFSET 0.000000 -0.000001 -10.273201
							CHANNELS 6 Xposition Yposition Zposition Zrotation Xrotation Yrotation
							End Site
							{
								OFFSET 0.000000 -0.000000 -2.173901
							}
						}
					}
				}
			}
			JOINT RightCollar
			{
				OFFSET -2.899500 -1.655900 6.981701
				CHANNELS 6 Xposition Yposition Zposition Zrotation Xrotation Yrotation
				JOINT RightShoulder
				{
					OFFSET -4.387501 0.000000 0.000000
					CHANNELS 6 Xposition Yposition Zposition Zrotation Xrotation Yrotation
					JOINT RightElbow
					{
						OFFSET 0.000000 -0.000001 -10.858101
						CHANNELS 6 Xposition Yposition Zposition Zrotation Xrotation Yrotation
						JOINT RightWrist
						{
							OFFSET 0.000000 -0.000001 -12.079601
							CHANNELS 6 Xposition Yposition Zposition Zrotation Xrotation Yrotation
							End Site
							{
								OFFSET 0.000000 0.000000 -2.173901
							}
						}
					}
				}
			}
		}
	}
	JOINT LeftHip
	{
		OFFSET 2.190800 0.073900 -2.522499
		CHANNELS 6 Xposition Yposition Zposition Zrotation Xrotation Yrotation
		JOINT LeftKnee
		{
			OFFSET 0.000000 -0.000002 -20.305000
			CHANNELS 6 Xposition Yposition Zposition Zrotation Xrotation Yrotation
			JOINT LeftAnkle
			{
				OFFSET 0.000000 -0.000001 -16.771700
				CHANNELS 6 Xposition Yposition Zposition Zrotation Xrotation Yrotation
				End Site
				{
					OFFSET 0.000000 -8.738000 0.000001
				}
			}
		}
	}
	JOINT RightHip
	{
		OFFSET -2.029500 0.054300 -2.705200
		CHANNELS 6 Xposition Yposition Zposition Zrotation Xrotation Yrotation
		JOINT RightKnee
		{
			OFFSET 0.000000 -0.000002 -20.030399
			CHANNELS 6 Xposition Yposition Zposition Zrotation Xrotation Yrotation
			JOINT RightAnkle
			{
				OFFSET 0.000000 -0.000001 -17.032700
				CHANNELS 6 Xposition Yposition Zposition Zrotation Xrotation Yrotation
				End Site
				{
					OFFSET 0.000000 -8.823600 0.000001
				}
			}
		}
	}
}
MOTION
Frames: 5
Frame Time: 0.041667
-20.942598 -4.896793 45.477398 2889.006532 -0.977506 -9.370345 -0.698601 0.806100 5.350892 -8.279199 -2.810312 4.186534 0.000002 -0.000000 4.409093 -15.946911 -5.014180 -2.188609 -0.000001 0.000001 10.248291 -41.126078 10.208887 19.018016 0.000002 -0.000001 2.173896 -1.556815 -0.613509 -3.659736 2.100599 -0.520899 6.016095 4.008349 -3.615472 -7.890408 5.536692 0.000007 0.000003 -43.342523 315.055726 -120.450755 0.000000 0.000008 -12.362101 -2069.198269 349.435429 49.065818 -0.000000 -0.000003 -10.273209 1922.449960 188.049615 -221.970042 -2.899504 -1.655898 6.981691 -7.276360 1.701550 -5.692666 -4.387499 -0.000000 -0.000008 -1183.551135 -106.595737 -11.157746 0.000003 0.000005 -10.858103 120.267760 238.451357 102.708580 -0.000006 0.000000 -12.079604 -572.300786 -154.703088 116.513028 2.190804 0.073897 -2.522503 -758.435134 -158.108593 -86.442662 -0.000012 -0.000004 -20.305016 -535.849815 3.755726 122.780478 0.000001 0.000003 -16.771709 1520.955923 7.120603 54.153209 -2.029500 0.054298 -2.705208 -382.971821 -19.846670 -0.882189 0.000001 0.000001 -20.030401 381.194114 46.646005 -4.172832 -0.000002 -0.000002 -17.032700 -5.876387 10.780336 3.409925
-20.966000 -4.978695 45.408298 2889.133300 -0.826664 -8.724694 -0.698601 0.806103 5.350888 -8.433637 -2.997826 4.040198 -0.000000 0.000001 4.409107 -15.928501 -4.905387 -2.183981 -0.000003 -0.000000 10.248301 -41.365924 10.219887 18.686943 -0.000001 0.000002 2.173893 -1.476711 -0.595862 -3.715420 2.100598 -0.520900 6.016098 3.771556 -3.563404 -8.218418 5.536691 0.000002 0.000004 -43.615833 315.075807 -120.238172 -0.000000 0.000000 -12.362098 -2069.777687 348.807652 49.528222 -0.000002 -0.000000 -10.273210 1922.612573 187.940523 -221.947079 -2.899503 -1.655900 6.981699 -7.284923 1.744124 -6.259933 -4.387499 0.000002 -0.000003 -1183.878656 -106.712000 -11.629663 0.000003 -0.000001 -10.858102 121.558461 237.655613 104.515964 -0.000001 -0.000000 -12.079606 -571.557333 -154.633147 116.661981 2.190801 0.073901 -2.522500 -758.838989 -157.592682 -87.491738 -0.000012 -0.000007 -20.305014 -535.776759 4.098345 122.382346 -0.000001 0.000006 -16.771702 1521.145310 7.011149 53.883444 -2.029500 0.054301 -2.705204 -382.680063 -19.628085 -1.623388 -0.000002 -0.000000 -20.030399 381.186492 46.722575 -4.236766 0.000002 -0.000001 -17.032700 -6.328433 10.477918 3.328280
-20.987200 -5.053395 45.344002 2889.199962 -0.651811 -8.087300 -0.698599 0.806101 5.350893 -8.521736 -3.227556 3.839853 0.000000 0.000001 4.409102 -15.891236 -4.798853 -2.175691 0.000002 0.000000 10.248301 -41.605435 10.153606 18.434708 0.000001 0.000001 2.173907 -1.381651 -0.598157 -3.764345 2.100602 -0.520900 6.016100 3.392403 -3.476116 -8.740063 5.536690 0.000002 -0.000006 -43.290094 314.985785 -119.533228 -0.000002 0.000009 -12.362097 -2070.162145 348.101520 50.204155 -0.000001 0.000000 -10.273196 1922.783055 187.721848 -221.937886 -2.899501 -1.655899 6.981701 -7.370116 1.626903 -6.657472 -4.387501 0.000000 -0.000004 -1184.752702 -106.780589 -12.670202 0.000004 0.000003 -10.858102 122.891837 236.776485 106.382034 0.000001 -0.000002 -12.079599 -571.050697 -154.649157 116.582914 2.190804 0.073899 -2.522502 -759.144763 -157.204795 -88.583653 -0.000007 -0.000005 -20.305010 -535.756268 4.418460 121.968218 -0.000001 0.000004 -16.771708 1521.252189 7.065351 53.663283 -2.029499 0.054300 -2.705208 -382.509254 -19.531536 -2.288914 -0.000001 -0.000001 -20.030403 381.138380 46.900669 -4.424425 0.000001 -0.000001 -17.032698 -6.532938 10.270437 3.416993
-21.006002 -5.133995 45.285301 2889.262254 -0.607539 -7.489731 -0.698598 0.806100 5.350901 -8.619115 -3.354120 3.652307 0.000001 0.000000 4.409105 -15.853223 -4.678240 -2.164758 0.000001 -0.000000 10.248305 -41.659841 10.087168 18.106273 -0.000000 0.000002 2.173894 -1.548748 -0.721411 -3.792295 2.100598 -0.520900 6.016106 2.910756 -3.166477 -8.887480 5.536690 0.000003 0.000008 -43.332028 314.761154 -119.431158 -0.000000 -0.000005 -12.362098 -2070.788118 347.407436 50.826863 -0.000002 -0.000001 -10.273200 1922.897802 187.562035 -221.993907 -2.899500 -1.655899 6.981704 -7.342668 1.713603 -7.074026 -4.387499 0.000000 0.000003 -1184.564735 -106.769189 -12.550717 0.000003 -0.000004 -10.858108 124.130219 235.653165 107.988153 -0.000003 0.000002 -12.079597 -570.357733 -154.629144 116.527986 2.190802 0.073897 -2.522495 -759.511572 -156.645430 -89.868931 -0.000007 -0.000002 -20.305016 -535.755449 5.143877 121.562027 -0.000002 0.000005 -16.771702 1520.987068 7.200339 53.767072 -2.029499 0.054297 -2.705198 -382.212113 -19.262564 -2.640891 -0.000001 0.000001 -20.030403 381.355771 46.868181 -5.106447 -0.000003 -0.000002 -17.032698 -6.885405 10.116445 3.444860
-21.019197 -5.213393 45.239796 2889.306186 -0.562876 -6.906902 -0.698600 0.806100 5.350898 -8.694116 -3.500670 3.421043 0.000002 0.000001 4.409096 -15.770649 -4.692097 -2.154513 -0.000001 0.000001 10.248305 -41.834489 10.019123 17.983082 0.000001 0.000004 2.173903 -1.535684 -0.789428 -3.785163 2.100601 -0.520899 6.016101 2.459011 -2.634575 -8.703439 5.536694 0.000003 0.000004 -43.763484 314.640724 -119.757286 -0.000007 0.000010 -12.362095 -2071.477475 346.717724 51.442967 -0.000001 -0.000002 -10.273209 1923.006211 187.360312 -221.949852 -2.899501 -1.655899 6.981698 -7.348739 1.897249 -7.493061 -4.387496 0.000003 -0.000004 -1183.943133 -106.851753 -11.985232 -0.000001 -0.000002 -10.858105 125.338957 234.763519 109.465372 -0.000001 -0.000004 -12.079596 -569.823558 -154.689127 116.595755 2.190808 0.073897 -2.522496 -759.908378 -155.990551 -91.239846 -0.000014 -0.000004 -20.305014 -535.681792 6.025439 121.169345 -0.000001 0.000004 -16.771706 1520.658345 7.381108 53.801195 -2.029498 0.054299 -2.705197 -382.200201 -19.011852 -2.971543 0.000001 -0.000000 -20.030405 381.003607 46.798434 -5.406473 0.000002 -0.000002 -17.032698 -6.714645 10.081705 3.689458
